<svg width="623" height="551" viewBox="0 0 623 551" fill="none" xmlns="http://www.w3.org/2000/svg">
<path d="M486.327 183.015L489.821 198.483L503.229 190.016L494.762 203.424L510.23 206.918L494.762 210.412L503.229 223.82L489.821 215.353L486.327 230.821L482.833 215.353L469.424 223.82L477.891 210.412L462.423 206.918L477.891 203.424L469.424 190.016L482.833 198.483L486.327 183.015Z" fill="white"/>
<path d="M580.085 51.4352C582.898 54.8114 583.885 59.6575 583.082 65.8897C582.278 72.1211 579.691 79.6728 575.444 88.3712C566.95 105.765 551.871 127.636 531.399 152.517C490.461 202.272 428.021 263.981 353.784 325.843C279.548 387.706 207.589 437.991 151.267 469.285C123.102 484.934 98.8695 495.821 80.2292 501.038C70.9073 503.647 63.0129 504.83 56.7388 504.496C50.4639 504.162 45.8752 502.318 43.0618 498.942C40.2485 495.565 39.2615 490.719 40.0651 484.487C40.8685 478.256 43.4556 470.704 47.7031 462.006C56.1965 444.612 71.2754 422.74 91.7474 397.86C132.686 348.105 195.125 286.396 269.362 224.534C343.599 162.671 415.558 112.385 471.88 81.0918C500.045 65.4429 524.277 54.5559 542.918 49.3388C552.239 46.7297 560.134 45.5471 566.408 45.8807C572.683 46.2143 577.271 48.0591 580.085 51.4352Z" stroke="url(#paint0_linear_4_391)"/>
<defs>
<linearGradient id="paint0_linear_4_391" x1="279.333" y1="239.162" x2="348.861" y2="329.528" gradientUnits="userSpaceOnUse">
<stop stop-color="white" stop-opacity="0"/>
<stop offset="1" stop-color="white"/>
</linearGradient>
</defs>
</svg>
