<svg width="522" height="461" viewBox="0 0 522 461" fill="none" xmlns="http://www.w3.org/2000/svg">
<path d="M406.791 153.066L409.714 166.008L420.933 158.924L413.848 170.143L426.791 173.066L413.848 175.99L420.933 187.208L409.714 180.124L406.791 193.066L403.867 180.124L392.648 187.208L399.733 175.99L386.791 173.066L399.733 170.143L392.648 158.924L403.867 166.008L406.791 153.066Z" fill="white"/>
<path d="M485.176 43.0248C487.51 45.8256 488.336 49.8541 487.665 55.0563C486.994 60.2578 484.834 66.5672 481.282 73.8413C474.18 88.3864 461.568 106.681 444.44 127.497C410.191 169.122 357.951 220.751 295.839 272.509C233.727 324.267 173.523 366.339 126.404 392.519C102.84 405.611 82.5713 414.717 66.9838 419.08C59.1883 421.262 52.5927 422.249 47.3555 421.97C42.1177 421.692 38.3042 420.153 35.9703 417.352C33.6364 414.551 32.8104 410.523 33.4812 405.321C34.1518 400.119 36.3123 393.81 39.8643 386.536C46.9668 371.991 59.5788 353.696 76.7062 332.88C110.956 291.255 163.195 239.626 225.307 187.868C287.419 136.109 347.623 94.0383 394.743 67.8578C418.306 54.7655 438.575 45.6598 454.163 41.2971C461.958 39.1152 468.554 38.1281 473.791 38.4066C479.029 38.6851 482.842 40.2241 485.176 43.0248Z" stroke="url(#paint0_linear_3_295)"/>
<defs>
<linearGradient id="paint0_linear_3_295" x1="233.598" y1="200.045" x2="291.772" y2="275.655" gradientUnits="userSpaceOnUse">
<stop stop-color="white" stop-opacity="0"/>
<stop offset="1" stop-color="white"/>
</linearGradient>
</defs>
</svg>
